<svg width="38" height="27" viewBox="0 0 38 27" fill="none" xmlns="http://www.w3.org/2000/svg">
<path d="M37.206 4.22459C36.7689 2.5617 35.4813 1.25205 33.8464 0.807609C30.8829 0 19 0 19 0C19 0 7.11713 0 4.15365 0.807609C2.51873 1.25213 1.23108 2.5617 0.794047 4.22459C0 7.23867 0 13.5273 0 13.5273C0 13.5273 0 19.8159 0.794047 22.83C1.23108 24.4929 2.51873 25.7479 4.15365 26.1924C7.11713 27 19 27 19 27C19 27 30.8829 27 33.8464 26.1924C35.4813 25.7479 36.7689 24.4929 37.206 22.83C38 19.8159 38 13.5273 38 13.5273C38 13.5273 38 7.23867 37.206 4.22459ZM15.1136 19.2369V7.8177L25.0454 13.5274L15.1136 19.2369Z" fill="#DBC58C"/>
</svg>
