<svg width="18" height="20" viewBox="0 0 18 20" fill="none" xmlns="http://www.w3.org/2000/svg">
<path d="M12.8333 6.08055V4.27778C12.8333 3.71601 12.7227 3.15975 12.5077 2.64074C12.2927 2.12174 11.9776 1.65016 11.5804 1.25293C11.1832 0.855704 10.7116 0.540605 10.1926 0.325626C9.67359 0.110648 9.11732 0 8.55556 0C7.99379 0 7.43753 0.110648 6.91852 0.325626C6.39952 0.540605 5.92794 0.855704 5.53071 1.25293C5.13348 1.65016 4.81838 2.12174 4.6034 2.64074C4.38843 3.15975 4.27778 3.71601 4.27778 4.27778V8.55555C4.27778 8.71763 4.34216 8.87307 4.45677 8.98768C4.57137 9.10228 4.72681 9.16667 4.88889 9.16667C5.05097 9.16667 5.2064 9.10228 5.32101 8.98768C5.43562 8.87307 5.5 8.71763 5.5 8.55555V7.30278H10.3889V6.08055H5.5V4.27778C5.5 3.46739 5.82192 2.6902 6.39495 2.11717C6.96798 1.54415 7.74517 1.22222 8.55556 1.22222C9.36594 1.22222 10.1431 1.54415 10.7162 2.11717C11.2892 2.6902 11.6111 3.46739 11.6111 4.27778V8.525C11.6111 8.68708 11.6755 8.84251 11.7901 8.95712C11.9047 9.07173 12.0601 9.13611 12.2222 9.13611C12.3843 9.13611 12.5397 9.07173 12.6543 8.95712C12.769 8.84251 12.8333 8.68708 12.8333 8.525V7.30278H15.8889V18.3028H1.22222V7.30278H3.05556V6.08055H0V18.3578C0 18.6673 0.122975 18.9642 0.341871 19.1831C0.560768 19.402 0.857656 19.525 1.16722 19.525H15.9439C16.2535 19.525 16.5503 19.402 16.7692 19.1831C16.9881 18.9642 17.1111 18.6673 17.1111 18.3578V6.08055H12.8333Z" fill="#311A0E"/>
</svg>
