<svg width="22" height="22" viewBox="0 0 22 22" fill="none" xmlns="http://www.w3.org/2000/svg">
<path d="M11 19.8002C13.3339 19.8002 15.5722 18.8731 17.2226 17.2227C18.8729 15.5724 19.8 13.3341 19.8 11.0002C19.8 8.66629 18.8729 6.42798 17.2226 4.77766C15.5722 3.12734 13.3339 2.2002 11 2.2002C8.66611 2.2002 6.42779 3.12734 4.77747 4.77766C3.12715 6.42798 2.20001 8.66629 2.20001 11.0002C2.20001 13.3341 3.12715 15.5724 4.77747 17.2227C6.42779 18.8731 8.66611 19.8002 11 19.8002ZM11 3.3002C11.7227 3.3002 12.5477 3.9492 13.2242 5.39899C13.4629 5.91159 13.6708 6.50119 13.8391 7.1502H8.16091C8.32921 6.50119 8.53711 5.91159 8.77691 5.39899C9.45121 3.9492 10.2762 3.3002 11 3.3002ZM7.77921 4.9337C7.45439 5.64519 7.20267 6.38783 7.02791 7.1502H4.32961C5.25828 5.54515 6.73336 4.32776 8.48541 3.7204C8.22031 4.0834 7.98381 4.4948 7.77921 4.9337ZM6.81121 8.25019C6.66885 9.15991 6.59823 10.0794 6.60001 11.0002C6.60001 11.9572 6.67371 12.8834 6.81231 13.7502H3.80601C3.47054 12.8722 3.29903 11.9401 3.30001 11.0002C3.30001 10.0322 3.47931 9.10379 3.80601 8.25019H6.81231H6.81121ZM7.02791 14.8502C7.22151 15.6675 7.47561 16.4144 7.77921 17.0667C7.98381 17.5056 8.22031 17.917 8.48541 18.28C6.73336 17.6726 5.25828 16.4552 4.32961 14.8502H7.02901H7.02791ZM8.16091 14.8502H13.8391C13.6876 15.4515 13.4814 16.0377 13.2231 16.6014C12.5488 18.0512 11.7238 18.7002 11 18.7002C10.2773 18.7002 9.45231 18.0512 8.77581 16.6014C8.51832 16.0376 8.31287 15.4514 8.16201 14.8502H8.16091ZM14.0734 13.7502H7.92661C7.77376 12.8415 7.69795 11.9216 7.70001 11.0002C7.70001 10.0289 7.78031 9.10269 7.92661 8.25019H14.0734C14.2197 9.10269 14.3 10.0289 14.3 11.0002C14.3 11.9715 14.2197 12.8977 14.0734 13.7502ZM14.9721 14.8502H17.6704C16.7417 16.4552 15.2667 17.6726 13.5146 18.28C13.7797 17.917 14.0162 17.5056 14.2208 17.0667C14.5244 16.4144 14.7785 15.6675 14.9721 14.8502ZM18.1951 13.7502H15.1877C15.3263 12.8834 15.4 11.9572 15.4 11.0002C15.4 10.0432 15.3263 9.11699 15.1877 8.25019H18.194C18.5207 9.10379 18.7 10.0322 18.7 11.0002C18.7 11.9682 18.5207 12.8966 18.194 13.7502H18.1951ZM13.5146 3.7204C15.2667 4.32767 16.7418 5.54509 17.6704 7.1502H14.971C14.7962 6.38784 14.5445 5.6452 14.2197 4.9337C14.0238 4.50751 13.7874 4.1012 13.5135 3.7204H13.5146Z" fill="#311A0E"/>
</svg>
