<svg width="44" height="44" viewBox="0 0 44 44" fill="none" xmlns="http://www.w3.org/2000/svg">
<path d="M38.4511 10.4746C38.4549 9.8295 38.2945 9.19404 37.9849 8.62807C37.6753 8.06209 37.2267 7.58422 36.6815 7.23946C36.1362 6.89469 35.5121 6.69438 34.8681 6.65737C34.224 6.62037 33.5812 6.74789 33 7.02794C32.9616 6.37828 32.7612 5.74857 32.417 5.19622C32.0729 4.64387 31.596 4.18645 31.0297 3.86566C30.4635 3.54487 29.826 3.37093 29.1753 3.35968C28.5246 3.34843 27.8814 3.50025 27.3044 3.80127C27.2394 2.86703 26.8503 1.98481 26.2042 1.30681C25.5582 0.628806 24.6958 0.197555 23.7658 0.0874606C22.8358 -0.0226338 21.8965 0.195333 21.11 0.703754C20.3235 1.21218 19.7392 1.97916 19.4578 2.87238C18.8448 2.50477 18.1436 2.31046 17.4289 2.31016C16.903 2.31176 16.3826 2.41713 15.8975 2.62023C15.4124 2.82332 14.9722 3.12016 14.602 3.49371C14.2319 3.86727 13.9391 4.31021 13.7405 4.79713C13.5418 5.28406 13.4412 5.8054 13.4444 6.33127V21.8046C11.88 19.8491 10.3522 17.9179 10.12 17.5879C9.76653 17.0267 9.27572 16.5649 8.69398 16.2462C8.11225 15.9275 7.45884 15.7625 6.79555 15.7668C6.23295 15.7498 5.67284 15.8483 5.14978 16.0562C4.62672 16.2641 4.15182 16.577 3.75439 16.9755C3.35697 17.3741 3.04545 17.8499 2.83906 18.3736C2.63268 18.8972 2.53581 19.4576 2.55444 20.0202C2.66444 22.2202 6.91778 29.9935 9.77778 34.2224C14.1044 40.6268 18.2356 41.5557 18.4189 41.5557H31.2767C31.52 41.5531 31.7558 41.4716 31.9489 41.3235C34.1437 39.3009 35.7309 36.7063 36.5322 33.8313C37.7544 30.0546 38.4022 24.6279 38.4633 17.2579L38.4511 10.4746ZM34.4422 33.1468C33.7559 35.4731 32.524 37.6018 30.8489 39.3557H18.7367C18.1622 39.1846 14.9844 38.0113 11.5622 32.9391C8.14 27.8668 4.81555 21.1079 4.75444 19.9102C4.74459 19.6543 4.78845 19.3992 4.88317 19.1614C4.9779 18.9235 5.12141 18.7081 5.30444 18.5291C5.48473 18.3435 5.7018 18.1976 5.94174 18.1008C6.18167 18.004 6.43918 17.9584 6.69778 17.9668C7.02065 17.948 7.34241 18.0192 7.62724 18.1724C7.91208 18.3256 8.14881 18.5549 8.31111 18.8346C8.66555 19.3602 11.1956 22.5013 12.6744 24.3713L15.6444 22.3668V6.33127C15.6239 6.08205 15.6553 5.83128 15.7365 5.59479C15.8178 5.35829 15.9472 5.14123 16.1167 4.95728C16.2861 4.77334 16.4918 4.62652 16.7208 4.5261C16.9498 4.42567 17.1972 4.37382 17.4472 4.37382C17.6973 4.37382 17.9446 4.42567 18.1737 4.5261C18.4027 4.62652 18.6084 4.77334 18.7778 4.95728C18.9472 5.14123 19.0766 5.35829 19.1579 5.59479C19.2392 5.83128 19.2705 6.08205 19.25 6.33127V19.9468H21.45V4.05794C21.502 3.60819 21.7175 3.19324 22.0556 2.89205C22.3936 2.59086 22.8306 2.42443 23.2833 2.42443C23.7361 2.42443 24.173 2.59086 24.5111 2.89205C24.8491 3.19324 25.0646 3.60819 25.1167 4.05794V20.1057H27.3167V7.3335C27.2965 7.09251 27.3265 6.84996 27.4048 6.62117C27.4832 6.39239 27.6082 6.18236 27.7719 6.00436C27.9356 5.82636 28.1344 5.68427 28.3559 5.58707C28.5773 5.48987 28.8165 5.43969 29.0583 5.43969C29.3002 5.43969 29.5394 5.48987 29.7608 5.58707C29.9822 5.68427 30.1811 5.82636 30.3448 6.00436C30.5085 6.18236 30.6335 6.39239 30.7118 6.62117C30.7902 6.84996 30.8202 7.09251 30.8 7.3335V21.3157H33V10.4379C33.0352 10.0327 33.2211 9.65544 33.5209 9.38057C33.8207 9.10569 34.2127 8.95321 34.6194 8.95321C35.0262 8.95321 35.4182 9.10569 35.718 9.38057C36.0178 9.65544 36.2037 10.0327 36.2389 10.4379V17.2213C36.2022 24.4446 35.6156 29.5902 34.4422 33.1468Z" fill="#75694B"/>
</svg>
