<svg width="54" height="43" viewBox="0 0 54 43" fill="none" xmlns="http://www.w3.org/2000/svg">
<path d="M20.8712 0V3.70875C18.5798 2.82188 16.1227 2.365 13.6656 2.365C8.72393 2.365 3.78221 4.1925 0 7.87437L9.19325 16.8238H12.2577V19.8069C14.6319 22.1181 17.7239 23.3275 20.8436 23.4619V29.5625H12.589V37.625C12.589 40.5812 15.0736 43 18.1104 43H45.7178C50.3006 43 54 39.3988 54 34.9375V0H20.8712ZM17.8067 17.2269V11.4488H11.5123L8.6411 8.65375C10.2441 8.05152 11.9474 7.74178 13.6656 7.74C17.365 7.74 20.816 9.1375 23.4387 11.6638L27.3313 15.4531L26.7791 15.9906C26.0855 16.6724 25.2599 17.2134 24.35 17.5825C23.4402 17.9515 22.4642 18.1412 21.4785 18.1406C20.181 18.1406 18.911 17.8181 17.8067 17.2269ZM48.4785 34.9375C48.4785 36.4156 47.2362 37.625 45.7178 37.625C44.1994 37.625 42.9571 36.4156 42.9571 34.9375V29.5625H26.3926V22.6019C27.9663 21.9837 29.4295 21.07 30.6994 19.8337L31.2515 19.2963L39.0644 26.875H42.9571V23.0856L26.3926 7.04125V5.375H48.4785V34.9375Z" fill="#75694B"/>
</svg>
