<svg width="31" height="31" viewBox="0 0 31 31" fill="none" xmlns="http://www.w3.org/2000/svg">
<path d="M28.7937 9.7C26.5563 4.5786 21.4451 1 15.5001 1C9.55433 1 4.4438 4.5786 2.20645 9.7" stroke="#B4A273" stroke-width="2" stroke-linecap="round" stroke-linejoin="round"/>
<path d="M15.5 8.25C14.1207 9.59853 13.0253 11.2094 12.2782 12.9879C11.5312 14.7663 11.1476 16.6762 11.15 18.6052C11.15 18.9677 11.1631 19.3273 11.1899 19.684C12.5573 21.0312 13.6427 22.6372 14.3827 24.4084C15.1227 26.1796 15.5025 28.0804 15.5 30C15.4974 28.0803 15.8772 26.1793 16.6172 24.408C17.3572 22.6367 18.4426 21.0305 19.8101 19.6833C19.97 17.5784 19.667 15.4641 18.9224 13.4889C18.1777 11.5137 17.0096 9.72549 15.5 8.25V8.25Z" stroke="#B4A273" stroke-width="2" stroke-linecap="round" stroke-linejoin="round"/>
<path d="M1 15.5C1 23.5084 7.49165 30 15.5 30C15.5026 28.0803 15.1228 26.1794 14.3828 24.408C13.6428 22.6367 12.5574 21.0305 11.1899 19.6833C8.47858 16.9985 4.81565 15.4947 1 15.5V15.5Z" stroke="#B4A273" stroke-width="2" stroke-linecap="round" stroke-linejoin="round"/>
<path d="M30 15.5C30 23.5084 23.5084 30 15.5 30C15.4974 28.0803 15.8772 26.1794 16.6172 24.408C17.3572 22.6367 18.4427 21.0305 19.8101 19.6833C22.5214 16.9985 26.1844 15.4947 30 15.5V15.5Z" stroke="#B4A273" stroke-width="2" stroke-linecap="round" stroke-linejoin="round"/>
</svg>
