<svg width="47" height="52" viewBox="0 0 47 52" fill="none" xmlns="http://www.w3.org/2000/svg">
<path d="M21.9583 18.0833C21.9583 16.3705 22.6388 14.7278 23.8499 13.5166C25.0611 12.3054 26.7038 11.625 28.4167 11.625C31.2583 11.625 33.6608 13.4592 34.5392 15.9908C34.7458 16.6625 34.875 17.36 34.875 18.0833C34.875 18.9315 34.7079 19.7713 34.3834 20.5548C34.0588 21.3384 33.5831 22.0504 32.9834 22.6501C32.3837 23.2498 31.6717 23.7255 30.8882 24.0501C30.1046 24.3746 29.2648 24.5417 28.4167 24.5417C25.6008 24.5417 23.25 22.7592 22.32 20.2533C22.0875 19.5817 21.9583 18.8325 21.9583 18.0833ZM5.16667 18.0833C5.16667 29.7083 18.29 45.6217 20.6667 48.5925L18.0833 51.6667C18.0833 51.6667 0 31.6458 0 18.0833C0 9.89417 5.45083 2.97083 12.9167 0.749167C8.16333 5.01167 5.16667 11.1858 5.16667 18.0833ZM28.4167 0C38.3883 0 46.5 8.08583 46.5 18.0833C46.5 31.6458 28.4167 51.6667 28.4167 51.6667C28.4167 51.6667 10.3333 31.6458 10.3333 18.0833C10.3333 8.08583 18.445 0 28.4167 0ZM28.4167 5.16667C21.2867 5.16667 15.5 10.9533 15.5 18.0833C15.5 20.6667 15.5 25.8333 28.4167 43.1675C41.3333 25.8333 41.3333 20.6667 41.3333 18.0833C41.3333 10.9533 35.5467 5.16667 28.4167 5.16667Z" fill="#75694B"/>
</svg>
