<svg width="51" height="51" viewBox="0 0 51 51" fill="none" xmlns="http://www.w3.org/2000/svg">
<path d="M25.4999 35.7002L11.9 22.1002M25.4999 51.0002V23.8002V51.0002ZM25.4999 25.5002V35.7002V25.5002ZM25.4999 25.5002C25.4999 21.8933 24.0671 18.434 21.5166 15.8835C18.9661 13.333 15.5069 11.9002 11.9 11.9002H1.69995V22.1002C1.69995 25.7071 3.1328 29.1664 5.6833 31.7168C8.23379 34.2673 11.693 35.7002 15.2999 35.7002H25.4999V25.5002ZM25.4999 25.5002H35.6999C39.3069 25.5002 42.7661 24.0673 45.3166 21.5168C47.8671 18.9664 49.2999 15.5071 49.2999 11.9002V1.7002H39.0999C35.493 1.7002 32.0338 3.13305 29.4833 5.68354C26.9328 8.23404 25.4999 11.6933 25.4999 15.3002V25.5002ZM25.4999 25.5002L39.0999 11.9002L25.4999 25.5002Z" stroke="#75694B" stroke-width="3"/>
</svg>
