<svg width="20" height="20" viewBox="0 0 20 20" fill="none" xmlns="http://www.w3.org/2000/svg">
<path d="M9.16667 4.16669C8.51006 4.16669 7.85988 4.29602 7.25325 4.54729C6.64662 4.79857 6.09543 5.16686 5.63113 5.63116C5.16684 6.09545 4.79854 6.64664 4.54727 7.25327C4.296 7.8599 4.16667 8.51008 4.16667 9.16669C4.16667 9.8233 4.296 10.4735 4.54727 11.0801C4.79854 11.6867 5.16684 12.2379 5.63113 12.7022C6.09543 13.1665 6.64662 13.5348 7.25325 13.7861C7.85988 14.0374 8.51006 14.1667 9.16667 14.1667C10.4927 14.1667 11.7645 13.6399 12.7022 12.7022C13.6399 11.7645 14.1667 10.4928 14.1667 9.16669C14.1667 7.84061 13.6399 6.56884 12.7022 5.63116C11.7645 4.69347 10.4927 4.16669 9.16667 4.16669ZM2.5 9.16669C2.50015 8.10574 2.75352 7.06015 3.23903 6.11681C3.72455 5.17347 4.4282 4.35963 5.2915 3.74293C6.15481 3.12622 7.15283 2.72447 8.20263 2.57105C9.25243 2.41763 10.3237 2.51698 11.3274 2.86084C12.331 3.2047 13.2382 3.78313 13.9733 4.54808C14.7085 5.31302 15.2505 6.24238 15.5543 7.25892C15.858 8.27546 15.9148 9.34981 15.7198 10.3927C15.5249 11.4356 15.0838 12.4169 14.4333 13.255L17.2558 16.0775C17.4076 16.2347 17.4916 16.4452 17.4897 16.6637C17.4878 16.8822 17.4002 17.0912 17.2457 17.2457C17.0912 17.4002 16.8822 17.4879 16.6637 17.4898C16.4452 17.4917 16.2347 17.4077 16.0775 17.2559L13.255 14.4334C12.2695 15.1984 11.0892 15.6716 9.84814 15.7992C8.60709 15.9267 7.35516 15.7034 6.23471 15.1548C5.11425 14.6061 4.17024 13.754 3.51002 12.6954C2.8498 11.6369 2.49986 10.4143 2.5 9.16669Z" fill="#311A0E"/>
</svg>
