<svg width="154" height="84" viewBox="0 0 154 84" fill="none" xmlns="http://www.w3.org/2000/svg">
<path d="M15.1448 26.1232C15.1448 26.2083 14.7363 26.2508 13.9191 26.2508L13.8064 26.1232C13.4683 25.6977 13.102 25.2723 12.7216 24.8468L12.0877 24.1235L11.5664 23.5846C11.4678 23.4853 11.4114 23.3577 11.4114 23.2301C11.4114 23.0315 11.4537 22.9181 11.5523 22.9181C11.7073 22.9039 11.8482 22.7195 11.989 22.3791C12.0736 22.1381 12.144 21.897 12.2426 21.6559C12.3272 21.4857 12.3835 20.7908 12.3835 19.5569V9.82804C12.3835 9.58695 12.4258 8.72184 12.3976 8.60838C12.3835 8.56584 12.3272 8.18292 12.3131 8.11201C12.3272 8.0411 12.4258 7.99856 12.6089 7.98438C12.6371 7.98438 12.7357 8.08365 12.8907 8.2822C13.0457 8.48075 13.1725 8.58002 13.257 8.58002C13.412 8.56584 13.581 8.6793 13.7501 8.93457C13.9191 9.18985 14.0459 9.30331 14.1305 9.26076L14.215 9.37421V23.3435C14.215 23.8115 14.2573 24.2654 14.3559 24.7334C14.4968 25.4141 14.694 25.7687 14.9617 25.7828C15.0885 25.8112 15.1448 25.9105 15.1448 26.1232Z" fill="#311A0E"/>
<path d="M26.5423 19.3587C26.5423 19.7841 26.3873 19.9968 26.0915 19.9968H20.0898L19.5263 20.5216C19.3572 20.6776 19.2727 20.8761 19.2727 21.1314C19.2727 21.4009 19.3713 21.7412 19.5967 22.1667C19.7517 22.4645 19.9208 22.7623 20.0898 23.0743C20.7661 24.4075 21.8086 25.074 23.2174 25.074C23.8092 25.074 24.429 24.8613 25.0912 24.4358C25.3307 24.2798 25.7393 24.0955 26.3028 23.8969C26.3592 23.8827 26.4014 24.2656 26.4014 25.0457C25.3025 25.9958 24.0627 26.4497 22.6962 26.4497C21.1464 26.4497 19.8926 25.854 18.9487 24.6627C17.9906 23.4573 17.5116 21.9823 17.5116 20.2238C17.5116 17.9688 18.2161 16.2102 19.6108 14.9622C20.442 14.1964 21.3578 13.8135 22.344 13.8135C23.471 13.8135 24.429 14.2815 25.2039 15.2033C26.1056 16.2386 26.5564 17.6284 26.5423 19.3587ZM24.5981 18.2241C24.584 17.3306 24.4009 16.579 24.0346 15.9975C23.6119 15.331 23.0343 14.9906 22.2876 14.9906C21.4 14.9906 20.7097 15.4586 20.2025 16.3946C19.8926 16.9619 19.6813 17.7703 19.5685 18.8197H22.2594H23.3161C23.5274 18.8197 23.7669 18.763 24.0627 18.6637C24.429 18.5219 24.5981 18.3801 24.5981 18.2241Z" fill="#311A0E"/>
<path d="M36.4182 22.6485C36.4041 23.7972 36.0096 24.7191 35.2489 25.3998C34.5022 26.0947 33.6005 26.4351 32.5721 26.4351C32.1635 26.4351 31.7831 26.3642 31.4027 26.2365C31.1773 26.1373 30.9096 26.038 30.6138 25.9245C30.5574 25.9104 30.5011 25.8962 30.4447 25.882C30.3038 25.8678 30.177 25.9104 30.0784 25.9955C29.9657 26.0947 29.8671 26.1373 29.7966 26.1089C29.3176 26.0238 29.0922 25.6267 29.0922 24.9318V23.1874L29.064 23.0314C29.1345 22.9463 29.2472 22.9179 29.3881 22.9605C29.4726 22.9889 29.5571 23.0598 29.6417 23.1449C29.7262 23.23 29.9094 23.4427 30.2052 23.7831C30.6842 24.3503 31.2618 24.7474 31.924 24.9885C32.403 25.1587 32.8961 25.1587 33.4174 24.9885C34.2627 24.7191 34.6853 24.1518 34.6853 23.315C34.6853 22.5492 34.2063 21.8827 33.2342 21.3437C33.1074 21.2445 32.7552 21.0317 32.1212 20.7197C31.3745 20.3368 30.7547 19.9397 30.2897 19.5143C29.5853 18.8619 29.2331 18.0961 29.2331 17.2026C29.2331 16.1106 29.5994 15.2596 30.3179 14.6356C30.9801 14.0542 31.7972 13.7563 32.7834 13.7563C33.4455 13.7563 34.1922 13.9265 35.0093 14.2527L35.3897 14.3662L35.4602 14.3804L35.5588 14.3378H35.6292C35.6856 14.352 35.7279 14.4938 35.7419 14.7491L35.8124 16.6211C35.7701 16.6778 35.6856 16.7204 35.5588 16.7771C35.5024 16.7629 35.4038 16.6778 35.2911 16.5502C35.0375 16.2382 34.6571 15.8553 34.164 15.3731C33.7837 15.1036 33.3328 14.9618 32.8538 14.9618C31.769 14.9618 31.1491 15.4015 31.0082 16.2666C30.966 16.5077 30.9942 16.7913 31.1069 17.1317C31.2196 17.472 31.4027 17.7415 31.6281 17.9684C31.7549 18.0677 31.9944 18.2237 32.3748 18.4222C32.5721 18.5215 32.8256 18.6633 33.1215 18.8052L33.5723 19.0321C34.8262 19.6419 35.6433 20.2659 35.9814 20.8757C36.2773 21.4288 36.4182 22.0245 36.4182 22.6485Z" fill="#311A0E"/>
<path d="M61.1858 19.0039C61.1858 21.344 60.3687 23.2302 58.7344 24.6626C57.227 26.024 55.4236 26.7048 53.3245 26.7048C51.9297 26.7048 50.5913 26.3361 49.3093 25.6128C48.9993 25.8113 48.788 26.024 48.6753 26.2084C48.5626 26.3928 48.4358 26.4921 48.309 26.4637C48.1822 26.4637 48.0413 26.2935 47.9145 25.9673C47.7877 25.6411 47.5764 25.1164 47.3228 24.3789C47.1397 23.9818 46.8579 23.216 46.4634 22.1098C46.4775 21.4291 46.5339 20.7341 46.6325 20.025C46.7875 20.096 46.9002 20.2094 46.9988 20.337C48.3231 22.1807 49.577 23.4429 50.7463 24.152C51.6902 24.6626 52.6764 24.9037 53.6626 24.9037C54.9305 24.9037 56.0013 24.4782 56.9029 23.6131C57.7905 22.7622 58.2413 21.6276 58.2413 20.2094C58.2413 19.5003 58.1004 18.8337 57.8046 18.2097C57.4946 17.4865 56.7479 16.6497 55.5504 15.7137C54.9024 15.2315 53.9021 14.6784 52.5214 14.0544C50.2391 13.0475 48.6471 11.8846 47.7596 10.5798C46.9565 9.41688 46.562 8.14049 46.562 6.76483C46.562 5.531 46.872 4.39643 47.4778 3.36114C48.0977 2.32586 48.9007 1.5033 49.9292 0.907651C50.9435 0.297823 52.141 0 53.5076 0C54.9305 0 56.4098 0.354551 57.9595 1.04947C58.1427 0.978561 58.3963 0.83674 58.7203 0.638192C58.8189 0.567282 58.9457 0.524736 59.1289 0.524736C59.2134 0.524736 59.312 0.567282 59.4247 0.638192L59.4952 1.24802L59.7629 5.31827C59.6079 5.27572 59.3966 5.23317 59.1289 5.20481C58.5654 5.04881 58.1145 4.96371 57.7623 4.93535C57.6778 4.90699 57.5933 4.83608 57.5369 4.70844C56.5366 2.73713 55.1841 1.75857 53.4794 1.75857C52.3946 1.75857 51.4648 2.12731 50.7181 2.85059C49.901 3.60224 49.4924 4.59498 49.4924 5.80046C49.4924 7.1052 49.9996 8.18304 51.0281 9.0056C51.5493 9.43106 52.3101 9.89907 53.2963 10.4096C53.7612 10.6507 54.3529 10.9627 55.0855 11.3173C57.2692 12.3526 58.8189 13.4729 59.777 14.721C60.7068 15.969 61.1858 17.3872 61.1858 19.0039Z" fill="#311A0E"/>
<path d="M77.3309 16.167C77.3309 16.8052 77.1196 17.1172 76.6688 17.1172H67.8635L67.0323 17.883C66.7787 18.1099 66.666 18.4077 66.666 18.7906C66.666 19.1736 66.821 19.6699 67.1309 20.3081C67.3704 20.7336 67.6099 21.1732 67.8635 21.6271C68.8497 23.57 70.3854 24.5344 72.4704 24.5344C73.3298 24.5344 74.2456 24.2224 75.2177 23.5984C75.5699 23.3714 76.1757 23.1162 77.021 22.8183C77.1055 22.79 77.1478 23.3573 77.1478 24.506C75.5276 25.8817 73.7102 26.5766 71.7097 26.5766C69.4273 26.5766 67.5818 25.6973 66.1729 23.9245C64.7782 22.166 64.0738 19.9819 64.0738 17.4008C64.0738 14.0822 65.1022 11.5011 67.1591 9.65741C68.3989 8.52285 69.7373 7.95557 71.1743 7.95557C72.8367 7.95557 74.2456 8.6363 75.3867 9.99778C76.6969 11.5578 77.345 13.6142 77.3309 16.167ZM74.4851 14.4651C74.471 13.1604 74.1892 12.0684 73.6539 11.2174C73.034 10.2389 72.1887 9.7425 71.1039 9.7425C69.7936 9.7425 68.7793 10.4232 68.0467 11.7847C67.5818 12.6215 67.2718 13.7986 67.1168 15.3444H71.0616H72.6113C72.9213 15.3444 73.2876 15.2735 73.6961 15.1175C74.2315 14.9189 74.4851 14.692 74.4851 14.4651Z" fill="#311A0E"/>
<path d="M95.9144 26.0096C95.9144 26.0663 95.6467 26.0947 95.0831 26.1231C94.7732 26.1514 94.4632 26.1798 94.1533 26.194L94.0547 26.0805C93.6602 25.5983 93.2798 25.2012 92.8994 24.875L91.4765 23.627C91.3356 23.627 91.2511 23.471 91.2511 23.1732C91.2511 22.9746 91.3075 22.847 91.4202 22.7903C91.6738 22.7477 91.8569 22.5492 91.9837 22.223C92.0541 21.9961 92.1246 21.7692 92.195 21.5423C92.2655 21.3863 92.3077 20.8757 92.3359 19.9964V15.3872C92.3641 13.501 92.1246 12.1679 91.6456 11.3879C91.2511 10.7781 90.7439 10.4377 90.1522 10.3243C89.6873 10.2533 89.0674 10.3384 88.2925 10.5937C87.1796 10.9625 86.1652 11.9552 85.2354 13.5294C84.8409 14.2669 84.6436 16.8338 84.6436 21.2728C84.6436 24.0667 84.9254 25.499 85.4749 25.57C85.5876 25.57 85.6298 25.7401 85.6298 26.0663C85.6298 26.1089 85.3481 26.1514 84.7986 26.1798C84.221 26.2365 83.9251 26.2365 83.897 26.1798L83.432 25.57L81.1779 22.8186C81.0088 22.6201 80.9384 22.4499 80.9384 22.3223C80.9384 22.1521 81.0088 21.9535 81.1356 21.755L81.5301 21.1452C81.7274 20.8473 81.8682 20.1666 81.9669 19.1029C81.9669 18.6491 81.9669 18.0818 81.995 17.4011C82.0232 16.7204 82.0232 14.5221 82.0232 10.7923C82.0232 10.3101 82.2064 8.18277 81.9809 8.40968L84.5732 9.35988C84.6859 9.77116 84.7423 10.4235 84.7704 11.317L84.8127 11.9268C86.3202 9.38824 88.1657 8.0835 90.3494 8.0835C91.8146 8.0835 92.9417 8.56569 93.7588 9.54425C94.576 10.5086 94.9704 11.9694 94.9423 13.8981V21.7124C94.9423 22.1379 94.9986 22.7335 95.1113 23.5136C95.224 24.2794 95.3226 24.7616 95.4072 24.9601L95.8016 25.6692C95.8862 25.7969 95.9144 25.9103 95.9144 26.0096Z" fill="#311A0E"/>
<path d="M111.003 21.0036C110.988 22.6912 110.411 24.0385 109.298 25.0455C108.185 26.0666 106.875 26.5771 105.367 26.5771C104.775 26.5771 104.198 26.4778 103.634 26.2793C103.31 26.1375 102.916 25.9815 102.479 25.8255C102.395 25.7971 102.296 25.7829 102.211 25.7546C102.014 25.7262 101.845 25.7829 101.69 25.9247C101.535 26.0666 101.394 26.1233 101.253 26.0949C100.563 25.9673 100.225 25.3858 100.225 24.3505V21.7836L100.183 21.5567C100.295 21.429 100.45 21.4007 100.648 21.4432C100.774 21.4999 100.901 21.585 101.014 21.7127C101.127 21.8403 101.394 22.1523 101.831 22.6487C102.535 23.4854 103.381 24.0811 104.353 24.4214C105.057 24.6767 105.79 24.6767 106.537 24.4214C107.776 24.0243 108.396 23.2018 108.396 21.968C108.396 20.8334 107.692 19.869 106.269 19.0606C106.1 18.9188 105.55 18.6068 104.663 18.153C103.55 17.5999 102.662 17.0042 101.972 16.3802C100.929 15.43 100.408 14.2955 100.408 12.9765C100.408 11.3598 100.943 10.1118 102 9.20412C102.972 8.3532 104.17 7.92773 105.607 7.92773C106.579 7.92773 107.664 8.16883 108.889 8.63684L109.453 8.79284L109.551 8.83538L109.692 8.76447H109.791C109.875 8.79284 109.932 8.99139 109.96 9.36012L110.045 12.1256C109.974 12.1965 109.861 12.2816 109.692 12.3525C109.594 12.3242 109.467 12.2107 109.298 12.0122C108.917 11.5725 108.368 10.9911 107.635 10.2961C107.058 9.89904 106.41 9.70049 105.705 9.70049C104.113 9.70049 103.198 10.3387 102.972 11.6151C102.916 11.9696 102.958 12.3809 103.127 12.8773C103.296 13.3736 103.55 13.7707 103.902 14.0969C104.071 14.2387 104.437 14.4798 104.987 14.7777C105.283 14.9337 105.649 15.118 106.086 15.3449L106.748 15.6853C108.608 16.593 109.791 17.5006 110.298 18.3941C110.791 19.2166 111.003 20.0817 111.003 21.0036Z" fill="#311A0E"/>
<path d="M131.641 26.0947C131.641 26.1231 131.444 26.1656 131.05 26.2082C130.655 26.2507 130.416 26.2649 130.359 26.2223L129.063 25.4707V23.7547C128.655 24.6056 128.204 25.2438 127.711 25.6409C127.077 26.1514 126.358 26.4067 125.569 26.4067C124.245 26.4067 123.16 25.7827 122.329 24.5347C121.61 23.4852 121.244 22.1237 121.244 20.4786C121.244 18.7342 121.639 17.2309 122.442 15.9687C123.315 14.5647 124.499 13.8698 125.978 13.8698C126.837 13.8698 127.57 14.1109 128.176 14.5931C128.471 14.8483 128.781 15.2171 129.077 15.6993C129.105 15.0469 129.12 14.2102 129.12 13.189L129.063 10.1541C129.049 9.38826 128.922 8.84934 128.683 8.5657L128.514 8.36715C128.443 8.36715 128.401 8.28206 128.401 8.14024C128.401 7.88496 128.471 7.75732 128.641 7.75732H130.909V11.8276C130.909 12.0403 130.909 13.2316 130.909 15.4156C130.909 17.5997 130.909 18.7626 130.909 18.9044C130.909 19.0462 130.909 19.7979 130.909 21.1877C130.909 22.5917 130.909 23.4285 130.909 23.6979C130.909 24.0241 130.951 24.3929 131.021 24.8041C131.134 25.3289 131.261 25.6125 131.43 25.6551C131.543 25.6692 131.599 25.8111 131.641 26.0947ZM123.357 20.2375C123.357 21.6841 123.569 22.8187 124.005 23.6412C124.484 24.5063 125.147 24.946 126.006 24.946C126.696 24.946 127.344 24.563 127.95 23.7972C128.57 23.0456 128.951 22.1663 129.105 21.1735C129.12 21.0601 129.134 20.8332 129.134 20.5353C129.134 19.8121 129.091 18.9753 129.007 18.0109C128.922 17.0324 128.824 16.4935 128.725 16.3516C127.95 15.4724 127.133 15.0469 126.231 15.0469C125.372 15.0469 124.682 15.444 124.189 16.2524C123.639 17.1742 123.357 18.4931 123.357 20.2375Z" fill="#311A0E"/>
<path d="M143.124 19.3587C143.124 19.7841 142.969 19.9968 142.673 19.9968H136.671L136.108 20.5216C135.939 20.6776 135.854 20.8761 135.854 21.1314C135.854 21.4009 135.967 21.7412 136.164 22.1667C136.319 22.4645 136.488 22.7623 136.657 23.0743C137.333 24.4075 138.376 25.074 139.785 25.074C140.362 25.074 140.996 24.8613 141.659 24.4358C141.898 24.2798 142.293 24.0955 142.87 23.8969C142.927 23.8827 142.955 24.2656 142.955 25.0457C141.856 25.9958 140.616 26.4497 139.25 26.4497C137.7 26.4497 136.446 25.854 135.502 24.6627C134.544 23.4573 134.079 21.9823 134.079 20.2238C134.079 17.9688 134.783 16.2102 136.178 14.9622C137.024 14.1964 137.925 13.8135 138.911 13.8135C140.038 13.8135 140.996 14.2815 141.771 15.2033C142.701 16.2386 143.138 17.6284 143.124 19.3587ZM141.194 18.2241C141.166 17.3306 140.982 16.579 140.616 15.9975C140.193 15.331 139.616 14.9906 138.883 14.9906C137.996 14.9906 137.291 15.4586 136.812 16.3946C136.488 16.9619 136.277 17.7703 136.178 18.8197H138.869H139.926C140.137 18.8197 140.391 18.763 140.672 18.6637C141.011 18.5219 141.194 18.3801 141.194 18.2241Z" fill="#311A0E"/>
<path d="M0.0986188 58.374C0.0281768 58.2889 0 58.1896 0 58.0336C0 57.6507 0.0986188 57.4664 0.281768 57.438C0.464917 57.4238 0.676243 57.1544 0.929834 56.6296C1.08481 56.2751 1.25387 55.9347 1.42293 55.6085C1.71878 55.2114 1.85967 53.5379 1.85967 50.6164V46.8298L1.95829 39.3134C1.97238 37.4271 1.88785 36.2642 1.7047 35.8387C1.52155 35.4133 1.3384 34.9736 1.18343 34.5482C0.929834 33.8674 0.690331 33.5271 0.479005 33.5129C0.26768 33.4987 0.154972 33.3002 0.154972 32.9314C0.154972 32.6052 0.239503 32.4351 0.394475 32.4351L4.52237 32.5202L6.42431 34.0093L8.15718 38.9021L9.84779 43.3127L11.313 47.2837C11.792 48.6451 12.4119 50.2619 13.1445 52.1623C13.4544 51.3823 13.8348 50.4321 14.2997 49.3259C14.6519 48.3757 15.1309 47.1418 15.7367 45.6244C16.2439 44.2345 16.8215 42.6603 17.4696 40.9159C17.5682 40.689 18.0331 39.4268 18.8362 37.1577L20.4986 32.4492H25.6127C25.8804 32.4492 26.0072 32.5202 26.0072 32.6478C26.0072 32.9598 25.9367 33.1016 25.8099 33.1016C25.0914 33.1725 24.5842 34.4915 24.3025 37.0442C24.2884 38.3348 24.232 40.1785 24.1757 42.5752C24.1193 43.8091 24.0771 45.5393 24.0771 47.7658V53.3252C24.0771 54.8143 24.1616 55.6652 24.3447 55.8922C24.4575 56.2042 24.5702 56.502 24.6829 56.7998C24.8519 57.282 25.0773 57.5373 25.345 57.594C25.4859 57.6224 25.5423 57.7784 25.5423 58.0762C25.5423 58.1755 25.4014 58.2322 25.1055 58.2322H19.6956C19.5406 58.2322 19.4702 58.062 19.4702 57.7358C19.4702 57.4664 19.5265 57.3245 19.6392 57.3245C19.9633 57.2678 20.2168 56.9984 20.4 56.4878C20.4845 56.1616 20.5831 55.8354 20.6959 55.5092C20.7381 55.4383 20.8086 55.0129 20.8931 54.2187C20.9213 53.5947 20.9635 52.7437 20.9917 51.6943C21.0058 51.2121 21.0199 50.6448 21.0199 49.9924L21.2312 37.0017C21.2312 36.7748 21.2171 36.6613 21.1749 36.6613L20.9354 37.0442L18.1036 44.2487L14.7224 53.3961C14.4124 54.3321 14.0461 55.3958 13.6235 56.6013C13.4826 56.9274 13.2572 57.1118 12.9191 57.1685C12.8064 57.1402 12.6936 57.0551 12.5528 56.8991C12.0456 56.5303 11.4539 55.9347 10.7917 55.1263L9.27016 51.0135L7.90359 47.156L4.38149 37.7959C4.1279 37.0868 3.97293 36.7464 3.90249 36.7464C3.81796 36.7464 3.77569 36.9024 3.80387 37.2002V37.3562V40.533L3.70525 43.7807V50.5455C3.70525 52.3608 3.78978 53.4103 3.95884 53.7081C4.1279 54.0059 4.28287 54.3038 4.43784 54.63C4.69144 55.0838 4.91685 55.3107 5.14226 55.3107C5.36768 55.3107 5.48039 55.5234 5.48039 55.9631C5.48039 56.0907 5.42403 56.2042 5.31133 56.3034L3.08536 58.2606C2.43729 58.2606 1.42293 58.2889 0.0986188 58.374Z" fill="#311A0E"/>
<path d="M43.6599 57.8908C43.3499 58.3162 42.4201 58.529 40.8704 58.529C39.5883 58.529 38.8557 57.6213 38.6444 55.7918C37.1369 57.6071 35.4886 58.529 33.6994 58.529C32.4596 58.529 31.4311 58.1319 30.614 57.3093C29.7969 56.5009 29.3883 55.3947 29.3883 54.0191C29.3883 52.9129 29.6137 51.9343 30.0646 51.0692C30.5295 50.2041 31.2057 49.6368 32.1356 49.3674C32.3751 48.9419 33.0231 48.6015 34.0657 48.3604C34.9673 48.1052 35.8972 47.9775 36.827 47.9775H36.9961C37.9963 47.8782 38.4894 47.3961 38.4894 46.5451C38.4894 45.368 38.4331 44.6306 38.3204 44.3611C38.1936 43.5811 37.9541 43.0138 37.6019 42.6593C37.2637 42.3047 36.8974 42.1062 36.4889 42.0494C35.6436 41.8934 35.0237 42.2622 34.6292 43.1414C34.5447 43.3542 34.3897 43.5527 34.1643 43.7796C33.5021 43.9073 32.4596 44.2618 31.0508 44.8717C30.9381 44.9142 30.8113 44.6873 30.6422 44.1626C30.4731 43.652 30.3886 43.1982 30.3886 42.8153C30.3886 42.6876 30.4168 42.6025 30.459 42.5458C31.3607 40.9007 33.1922 40.0781 35.9676 40.0781C37.306 40.0781 38.4472 40.3901 39.3911 41.0283C40.0251 41.4821 40.4759 42.0352 40.7436 42.6734C41.0113 43.3116 41.138 44.3186 41.138 45.68V52.7143C41.1099 53.8205 41.1521 54.6289 41.2648 55.1394C41.3776 55.65 41.5325 56.0187 41.7298 56.274C41.9974 56.6569 42.3074 56.8271 42.6878 56.7987C42.73 56.8271 42.9555 56.7987 43.3499 56.7278C43.3922 56.7278 43.4626 56.9122 43.5472 57.2668C43.6458 57.6355 43.688 57.8482 43.6599 57.8908ZM37.9118 48.6157C37.5314 48.7433 36.9397 48.9844 36.1367 49.3248C35.5872 49.5234 34.9532 49.8354 34.277 50.2608C32.9386 50.9132 32.2764 52.0052 32.2764 53.5511C32.2764 54.3453 32.5019 55.0402 32.9809 55.6075C33.4458 56.1747 34.0234 56.4584 34.7137 56.4584C35.545 56.4584 36.2776 56.1747 36.9256 55.6075C37.7568 54.8842 38.2781 53.9623 38.4894 52.842C38.6021 52.3456 38.588 51.0267 38.4613 48.9135C38.264 48.8426 38.0809 48.7433 37.9118 48.6157Z" fill="#311A0E"/>
<path d="M56.142 43.3263C55.7193 43.5248 55.0572 43.8368 54.1555 44.2765C53.916 44.3758 53.6624 44.3332 53.4229 44.1205C53.3807 44.0779 53.3243 44.0212 53.2539 43.9787C52.9721 43.7517 52.6621 43.695 52.324 43.8226C51.5914 44.1205 50.9856 44.8721 50.5066 46.0492C50.4644 46.1201 50.3939 46.7867 50.2953 48.0064C50.253 48.4318 50.2248 49.7366 50.2248 51.8922C50.2248 55.3243 50.4925 57.0545 51.0138 57.097C51.1265 57.1254 51.1829 57.253 51.1829 57.48C51.1829 57.9905 51.0561 58.2316 50.7884 58.2316H46.6041C46.421 58.2316 46.3364 58.0331 46.3364 57.636C46.3364 57.1821 46.4632 56.9552 46.7027 56.9269C47.1677 56.8985 47.4213 55.9341 47.4353 54.0195V50.8002C47.4353 50.6584 47.4213 49.9777 47.4072 48.8005C47.4072 47.51 47.3931 46.1627 47.379 44.7587C47.2663 42.4895 46.9845 41.3408 46.5337 41.3124C46.3364 41.3124 46.2378 41.1139 46.2378 40.7168C46.2378 40.5891 46.421 40.5324 46.8014 40.5324L50.1262 40.419L50.2248 42.4186L50.253 44.3048C50.732 43.2695 51.3378 42.3761 52.0704 41.6528C53.113 40.6175 54.1837 40.0928 55.2826 40.0928C55.5925 40.0928 55.9025 40.1495 56.2124 40.2488C56.3674 40.3197 56.5224 40.6459 56.6914 41.2273C56.8605 41.8088 56.9309 42.3052 56.9309 42.7023C56.9309 42.9859 56.8464 43.1419 56.6492 43.1703C56.5083 43.227 56.3251 43.2695 56.142 43.3263Z" fill="#311A0E"/>
<path d="M69.5116 43.3263C69.0889 43.5248 68.4268 43.8368 67.5251 44.2765C67.2856 44.3758 67.032 44.3332 66.7925 44.1205C66.7503 44.0779 66.6939 44.0212 66.6235 43.9787C66.3417 43.7517 66.0318 43.695 65.6936 43.8226C64.961 44.1205 64.3552 44.8721 63.8622 46.0492C63.8199 46.1201 63.7494 46.7867 63.6649 48.0064C63.6227 48.4318 63.5945 49.7366 63.5945 51.8922C63.5945 55.3243 63.8622 57.0545 64.3834 57.097C64.4961 57.1254 64.5525 57.253 64.5525 57.48C64.5525 57.9905 64.4257 58.2316 64.158 58.2316H59.9738C59.8047 58.2316 59.7061 58.0331 59.7061 57.636C59.7061 57.1821 59.8329 56.9552 60.0724 56.9269C60.5373 56.8985 60.7909 55.9341 60.805 54.0195V50.8002C60.805 50.6584 60.7909 49.9777 60.7768 48.8005C60.7768 47.51 60.7627 46.1627 60.7486 44.7587C60.6359 42.4895 60.3541 41.3408 59.9033 41.3124C59.7061 41.3124 59.6075 41.1139 59.6075 40.7168C59.6075 40.5891 59.8047 40.5324 60.171 40.5324L63.4959 40.419L63.5945 42.4186L63.6227 44.3048C64.1017 43.2695 64.7075 42.3761 65.4401 41.6528C66.4826 40.6175 67.5533 40.0928 68.6663 40.0928C68.9762 40.0928 69.2862 40.1495 69.5961 40.2488C69.7511 40.3197 69.9061 40.6459 70.0751 41.2273C70.2442 41.8088 70.3287 42.3052 70.3287 42.7023C70.3287 42.9859 70.2301 43.1419 70.047 43.1703C69.8779 43.227 69.6947 43.2695 69.5116 43.3263Z" fill="#311A0E"/>
<path d="M86.8408 57.8908C86.5309 58.3162 85.601 58.529 84.0513 58.529C82.7693 58.529 82.0367 57.6213 81.8253 55.7918C80.332 57.6071 78.6695 58.529 76.8803 58.529C75.6405 58.529 74.6121 58.1319 73.795 57.3093C72.9778 56.5009 72.5693 55.3947 72.5693 54.0191C72.5693 52.9129 72.7947 51.9343 73.2455 51.0692C73.6963 50.2041 74.3867 49.6368 75.3165 49.3674C75.556 48.9419 76.2041 48.6015 77.2325 48.3604C78.1483 48.1052 79.064 47.9775 79.9938 47.9775H80.1629C81.1491 47.8782 81.6563 47.3961 81.6563 46.5451C81.6563 45.368 81.5999 44.6306 81.4872 44.3611C81.3463 43.5811 81.1209 43.0138 80.7687 42.6593C80.4306 42.3047 80.0502 42.1062 79.6557 42.0494C78.8104 41.8934 78.1905 42.2622 77.7961 43.1414C77.7115 43.3542 77.5566 43.5527 77.3311 43.7796C76.669 43.9073 75.6264 44.2618 74.2176 44.8717C74.1049 44.9142 73.9781 44.6873 73.795 44.1626C73.6259 43.652 73.5414 43.1982 73.5414 42.8153C73.5414 42.6876 73.5695 42.6025 73.6118 42.5458C74.5135 40.9007 76.3449 40.0781 79.1204 40.0781C80.4588 40.0781 81.5999 40.3901 82.5438 41.0283C83.1778 41.4821 83.6427 42.0352 83.8963 42.6734C84.164 43.3116 84.2908 44.3186 84.2908 45.68V52.7143C84.2767 53.8205 84.3049 54.6289 84.4317 55.1394C84.5303 55.65 84.6994 56.0187 84.8966 56.274C85.1643 56.6569 85.4883 56.8271 85.8546 56.7987C85.8969 56.8271 86.1223 56.7987 86.5168 56.7278C86.559 56.7278 86.6295 56.9122 86.714 57.2668C86.8267 57.6355 86.869 57.8482 86.8408 57.8908ZM81.0927 48.6157C80.7124 48.7433 80.1206 48.9844 79.3176 49.3248C78.7541 49.5234 78.1342 49.8354 77.4438 50.2608C76.1055 50.9132 75.4433 52.0052 75.4433 53.5511C75.4433 54.3453 75.6828 55.0402 76.1477 55.6075C76.6126 56.1747 77.1903 56.4584 77.8806 56.4584C78.6977 56.4584 79.4444 56.1747 80.0784 55.6075C80.9096 54.8842 81.4309 53.9623 81.6563 52.842C81.7549 52.3456 81.7549 51.0267 81.614 48.9135C81.445 48.8426 81.2618 48.7433 81.0927 48.6157Z" fill="#311A0E"/>
<path d="M104.761 58.0615C104.761 58.1891 104.494 58.2459 103.93 58.2459H100.338C100.056 57.948 99.7038 57.4658 99.267 56.8135C98.7176 56.0051 98.4076 55.3953 98.3654 54.9556C98.2808 54.2323 97.6609 53.0694 96.5057 51.481C95.3645 49.9635 94.5615 49.1126 94.0684 48.9141L93.0963 50.8712V51.8072C93.0963 53.3672 93.1245 54.3742 93.1949 54.828C93.3499 56.4164 93.6176 57.2106 94.0121 57.2389C94.167 57.2389 94.2516 57.4091 94.2516 57.7353C94.1952 58.0615 94.1107 58.2317 93.9839 58.2317H89.7996C89.5179 58.2317 89.3629 57.9339 89.3629 57.324C89.3629 56.9411 89.4333 56.7426 89.5742 56.7142C89.7151 56.6858 89.856 56.4447 89.9828 56.0051L90.2082 55.1258C90.3632 54.8705 90.4336 53.8778 90.4336 52.1476L90.335 33.796C90.335 33.4415 90.335 31.6262 90.335 31.5269C90.335 31.3 90.5463 31.1865 90.9549 31.1865C91.1098 31.1865 91.2648 31.2433 91.3916 31.3425L92.0679 31.9098C92.1806 32.0091 92.3778 32.2218 92.6455 32.5622C92.8004 32.7324 92.9554 32.8175 93.0822 32.7891V33.7251V35.6113V38.7456V49.2119C93.3922 48.9566 94.3924 47.8362 96.0549 45.8508C96.9706 44.7729 97.8582 43.6809 98.7598 42.6031C98.9148 42.3903 99.2529 42.1351 99.7601 41.8089C100.183 41.5394 100.394 41.355 100.394 41.2841L100.465 41.0147C100.493 40.9438 100.45 40.887 100.338 40.8587L100.239 40.8303C100.211 40.8303 100.211 40.7736 100.211 40.6743C100.211 40.6176 100.267 40.575 100.38 40.5183C100.479 40.4474 100.549 40.4474 100.577 40.5183L101.521 42.7023C101.535 42.7023 101.549 42.8442 101.549 43.1136C101.549 43.3264 101.437 43.4398 101.211 43.4965C100.62 43.6242 99.4502 44.7446 97.7173 46.8577C97.6187 47.0137 97.5482 47.1839 97.5482 47.3824C97.5482 47.5101 97.5623 47.6802 97.6187 47.8788C97.661 48.0773 97.6891 48.2192 97.6891 48.2901C97.6891 48.361 97.6469 48.4319 97.5482 48.4744C98.0695 48.7723 98.8021 49.6374 99.7601 51.0414C100.789 52.573 101.394 53.8211 101.606 54.7854C101.718 55.3102 102.085 55.92 102.705 56.6007C103.31 57.2815 103.86 57.636 104.325 57.6644C104.381 57.6644 104.48 57.7211 104.592 57.8204C104.705 57.9339 104.761 58.0048 104.761 58.0615Z" fill="#311A0E"/>
<path d="M120.146 48.2329C120.146 48.8711 119.934 49.1831 119.484 49.1831H110.678L109.847 49.9489C109.608 50.1758 109.481 50.4736 109.481 50.8565C109.481 51.2395 109.636 51.7358 109.946 52.374C110.185 52.8137 110.439 53.2391 110.678 53.693C111.665 55.6359 113.2 56.6003 115.285 56.6003C116.145 56.6003 117.06 56.2883 118.033 55.6643C118.385 55.4373 118.976 55.1821 119.822 54.8842C119.906 54.8701 119.949 55.4232 119.949 56.5861C118.342 57.9617 116.511 58.6567 114.51 58.6567C112.228 58.6567 110.383 57.7774 108.988 56.0188C107.579 54.2602 106.875 52.0762 106.875 49.4809C106.875 46.1623 107.903 43.5812 109.96 41.7375C111.2 40.6029 112.524 40.0356 113.961 40.0356C115.623 40.0356 117.032 40.7164 118.173 42.092C119.512 43.6379 120.174 45.6801 120.146 48.2329ZM117.3 46.5452C117.286 45.2263 117.004 44.1484 116.469 43.2975C115.849 42.319 115.004 41.8226 113.919 41.8226C112.623 41.8226 111.594 42.5033 110.862 43.8648C110.397 44.7015 110.087 45.8928 109.932 47.4245H113.891H115.44C115.75 47.4245 116.117 47.3536 116.539 47.1976C117.046 46.9848 117.3 46.7721 117.3 46.5452Z" fill="#311A0E"/>
<path d="M135.868 55.5649C135.403 56.4726 134.699 57.1958 133.741 57.7631C132.783 58.3162 131.712 58.5857 130.487 58.5857C129.148 58.5857 127.894 58.1744 126.739 57.366C125.598 56.5435 124.71 55.4373 124.105 54.0616C123.499 52.6718 123.203 51.1259 123.203 49.4099C123.203 46.7437 123.879 44.5171 125.218 42.7585C126.655 40.9716 128.542 40.0781 130.867 40.0781C132.304 40.0781 133.699 40.4043 135.051 41.0283C135.474 41.2269 135.685 41.8934 135.685 42.9996C135.685 43.2549 135.629 43.5385 135.516 43.8364C135.418 44.2193 135.291 44.3895 135.164 44.3611C134.657 44.3044 134.15 43.964 133.671 43.3116C132.966 42.3472 132.064 41.8509 130.952 41.8509C129.669 41.8509 128.655 42.3614 127.894 43.3967C126.88 44.7582 126.373 46.616 126.373 48.9703C126.373 50.9274 126.767 52.6434 127.57 54.09C128.5 55.806 129.782 56.6569 131.416 56.6569C132.163 56.6569 132.91 56.43 133.628 55.9762C134.347 55.5224 134.924 54.9409 135.333 54.246C135.474 54.0191 135.601 53.8914 135.742 53.8631C135.77 54.402 135.812 54.9693 135.868 55.5649Z" fill="#311A0E"/>
<path d="M154 58.0892C154 58.1601 153.704 58.231 153.099 58.3019C152.479 58.3728 152.127 58.3445 152.042 58.231L149.647 55.5506C149.562 55.5222 149.52 55.3946 149.52 55.1677C149.548 55.0117 149.605 54.8699 149.689 54.7139C149.985 54.6713 150.239 54.104 150.422 53.0262C150.422 52.6433 150.422 52.232 150.436 51.7782C150.464 51.0974 150.478 49.9487 150.478 48.3319C150.478 46.7719 150.422 45.6799 150.337 45.0842C150.126 43.7653 149.633 42.9002 148.886 42.4464C148.52 42.2195 148.111 42.106 147.675 42.106C146.998 42.106 146.294 42.3329 145.561 42.7868C144.603 43.425 143.814 44.4177 143.223 45.7792C143.18 45.9068 143.11 47.481 143.025 50.4876C142.983 51.5513 142.969 52.5156 142.997 53.3666V54.5011V55.8342C143.04 56.9972 143.251 57.6354 143.631 57.7346C143.674 57.7346 143.744 57.8764 143.829 58.1885C143.829 58.2594 143.589 58.3019 143.138 58.3019H142.899H142.265C141.842 58.3019 141.603 58.3019 141.532 58.3019C141.349 58.3019 141.166 58.1317 140.969 57.8197C140.856 57.607 140.743 57.4084 140.63 57.2099L139.926 56.3448L139.391 55.7775C139.278 55.7775 139.236 55.6215 139.236 55.3237C139.236 55.0259 139.306 54.8557 139.461 54.8415C139.616 54.8131 139.813 54.3168 140.053 53.3666C140.067 52.7142 140.123 51.7214 140.18 50.4167C140.25 49.3105 140.278 47.1548 140.278 43.9497V37.8656C140.278 35.171 140.278 33.611 140.278 33.1713C140.222 32.8451 140.56 31.3844 140.56 31.2851C140.56 31.2284 140.602 31.2 140.687 31.1717C140.757 31.1433 140.814 31.1433 140.856 31.1717L142.969 32.9444V41.2551C142.955 42.7868 142.955 43.5526 142.969 43.5526C144.477 41.2551 146.28 40.1063 148.365 40.1063C149.915 40.1063 151.084 40.6311 151.901 41.6806C152.718 42.73 153.099 44.3042 153.085 46.4032V54.0047C153.085 55.3946 153.127 56.1604 153.211 56.2739C153.24 56.3022 153.31 56.515 153.451 56.9404C153.578 57.3659 153.676 57.5644 153.747 57.5644C153.93 57.5644 154 57.7488 154 58.0892Z" fill="#311A0E"/>
<path d="M10.5669 79.2918H9.77798L8.15781 75.179H3.25505L1.63489 79.2918H0.831848L5.69234 67.1803L10.5669 79.2918ZM7.87605 74.4699L5.70643 68.9389L3.53682 74.4699H7.87605ZM6.45312 66.3719L6.04455 66.6839L4.24124 64.3155L4.74842 63.9326L6.45312 66.3719Z" fill="#311A0E"/>
<path d="M17.4274 79.2915H16.7229V66.3433H17.4274V79.2915Z" fill="#311A0E"/>
<path d="M21.7249 67.606L20.0062 71.194L19.5835 71.0096L21.0346 67.2939L21.7249 67.606Z" fill="#311A0E"/>
<path d="M30.6707 75.6328C30.6707 76.6964 30.3044 77.5899 29.5718 78.3273C28.8392 79.0648 27.9516 79.4335 26.9091 79.4335C25.8806 79.4335 25.0072 79.0648 24.2887 78.3273C23.5701 77.5899 23.2038 76.6822 23.2038 75.6328C23.2038 74.5833 23.5561 73.6898 24.2746 72.9665C24.9931 72.2432 25.8666 71.8745 26.9091 71.8745C27.9657 71.8745 28.8674 72.2291 29.5859 72.9524C30.3185 73.6898 30.6707 74.5833 30.6707 75.6328ZM29.9663 75.6469C29.9663 74.7677 29.6704 74.0302 29.0928 73.4345C28.5152 72.8389 27.7967 72.5411 26.9373 72.5411C26.0779 72.5411 25.3594 72.8389 24.7817 73.4345C24.19 74.0302 23.9083 74.7677 23.9083 75.6469C23.9083 76.5262 24.2041 77.2637 24.7958 77.8735C25.3876 78.4833 26.1061 78.7812 26.9514 78.7812C27.7967 78.7812 28.5152 78.4833 29.0928 77.8735C29.6704 77.2779 29.9663 76.5262 29.9663 75.6469Z" fill="#311A0E"/>
<path d="M35.6018 72.0442L35.3623 72.6966C35.2919 72.6398 35.2074 72.6115 35.0947 72.5831C34.9819 72.5547 34.8833 72.5406 34.7706 72.5406C34.193 72.5406 33.7703 72.8384 33.4886 73.4198C33.2209 74.0155 33.08 74.9231 33.08 76.1428V79.2912H32.3756V72.0442H33.08V73.2071C33.2491 72.7391 33.4745 72.4129 33.7703 72.2002C34.0662 71.9875 34.4466 71.8882 34.9115 71.8882C35.0383 71.8882 35.1651 71.9024 35.2778 71.9307C35.4046 71.9449 35.5032 71.9875 35.6018 72.0442Z" fill="#311A0E"/>
<path d="M37.6446 69.4062C37.6446 69.5764 37.5882 69.7324 37.4614 69.8459C37.3346 69.9735 37.1938 70.0302 37.0247 70.0302C36.8556 70.0302 36.7007 69.9735 36.588 69.8459C36.4612 69.7182 36.4048 69.5764 36.4048 69.4062C36.4048 69.2361 36.4612 69.08 36.588 68.9666C36.7148 68.839 36.8556 68.7822 37.0247 68.7822C37.1938 68.7822 37.3346 68.839 37.4614 68.9666C37.5882 69.08 37.6446 69.2361 37.6446 69.4062ZM37.391 79.2911H36.6866V72.0441H37.391V79.2911Z" fill="#311A0E"/>
<path d="M46.1677 79.6741C46.1677 81.0072 45.9 81.9858 45.3505 82.6098C44.8011 83.2338 43.9558 83.5316 42.7865 83.5316C41.8989 83.5316 41.1945 83.3615 40.6732 83.0211C40.1519 82.6807 39.8138 82.156 39.6447 81.4752H40.4055C40.5323 81.9574 40.7859 82.312 41.1663 82.5389C41.5608 82.7658 42.1102 82.8793 42.8146 82.8793C43.7586 82.8793 44.4348 82.6382 44.8434 82.156C45.2519 81.6738 45.4633 80.908 45.4633 79.8301V77.9156C45.1392 78.4403 44.7588 78.8232 44.308 79.0785C43.8572 79.3196 43.3218 79.4472 42.7019 79.4472C41.7016 79.4472 40.8845 79.1068 40.2505 78.4261C39.6307 77.7454 39.3066 76.8519 39.3066 75.7457C39.3066 74.597 39.6166 73.6609 40.2365 72.9518C40.8563 72.2427 41.6594 71.8882 42.6315 71.8882C43.3359 71.8882 43.9135 72.0016 44.3503 72.2427C44.787 72.4838 45.1533 72.8809 45.4633 73.434V72.0442H46.1677V79.6741ZM45.4633 75.6464C45.4633 74.6962 45.2097 73.9304 44.7025 73.3773C44.1953 72.8242 43.5191 72.5406 42.6878 72.5406C41.8848 72.5406 41.2367 72.8384 40.7436 73.4198C40.2505 74.0013 39.997 74.7813 39.997 75.7315C39.997 76.6675 40.2505 77.405 40.7577 77.9581C41.2649 78.5112 41.9412 78.7807 42.7865 78.7807C43.6036 78.7807 44.2516 78.497 44.7447 77.9297C45.2237 77.3625 45.4633 76.6108 45.4633 75.6464Z" fill="#311A0E"/>
<path d="M49.8868 69.4062C49.8868 69.5764 49.8305 69.7324 49.7037 69.8459C49.5769 69.9735 49.436 70.0302 49.2669 70.0302C49.0979 70.0302 48.9429 69.9735 48.8302 69.8459C48.7034 69.7182 48.647 69.5764 48.647 69.4062C48.647 69.2361 48.7034 69.08 48.8302 68.9666C48.957 68.839 49.0979 68.7822 49.2669 68.7822C49.436 68.7822 49.5769 68.839 49.7037 68.9666C49.8305 69.08 49.8868 69.2361 49.8868 69.4062ZM49.6332 79.2911H48.9288V72.0441H49.6332V79.2911Z" fill="#311A0E"/>
<path d="M57.5657 79.2917H56.8612V74.7818C56.8612 74.0018 56.7204 73.4204 56.4527 73.0658C56.1709 72.7113 55.7201 72.5269 55.1002 72.5269C54.3676 72.5269 53.8181 72.7822 53.48 73.3069C53.1419 73.8316 52.9728 74.6542 52.9728 75.7888V79.2775H52.2684V72.0447H52.9728V73.2502C53.1983 72.768 53.4941 72.4276 53.8604 72.2007C54.2267 71.988 54.6916 71.8745 55.2552 71.8745C55.9596 71.8745 56.5231 72.1014 56.9458 72.5694C57.3543 73.0374 57.5657 73.6756 57.5657 74.4982V79.2917Z" fill="#311A0E"/>
<path d="M65.9912 75.6186H59.9895C60.0036 76.6397 60.2431 77.4197 60.708 77.9586C61.1729 78.5117 61.821 78.7812 62.6381 78.7812C63.2298 78.7812 63.737 78.6535 64.1597 78.3841C64.5823 78.1288 64.9345 77.7317 65.2022 77.1928L65.808 77.5048C65.4558 78.1572 65.0191 78.6535 64.4978 78.9655C63.9906 79.2775 63.3707 79.4335 62.6381 79.4335C61.5956 79.4335 60.7785 79.0932 60.1727 78.4124C59.5809 77.7317 59.2851 76.7957 59.2851 75.6186C59.2851 74.5266 59.595 73.6331 60.2431 72.924C60.8771 72.2291 61.6801 71.8745 62.6381 71.8745C63.6525 71.8745 64.4555 72.1865 65.0754 72.8389C65.6953 73.4771 65.9912 74.3422 65.9912 75.42V75.6186ZM65.2304 74.952C65.1881 74.2287 64.9204 73.6473 64.4555 73.2076C63.9765 72.768 63.3707 72.5411 62.6381 72.5411C61.9478 72.5411 61.3561 72.768 60.863 73.2076C60.3699 73.6615 60.0881 74.2429 60.0318 74.952H65.2304Z" fill="#311A0E"/>
<path d="M79.0082 79.2915H78.3038V77.9158C77.9797 78.4405 77.5853 78.8235 77.1485 79.0787C76.6977 79.3198 76.1623 79.4475 75.5425 79.4475C74.5422 79.4475 73.725 79.1071 73.0911 78.4264C72.4712 77.7456 72.1471 76.8521 72.1471 75.7459C72.1471 74.5972 72.4571 73.6612 73.077 72.9521C73.6969 72.243 74.4999 71.8884 75.4861 71.8884C76.2328 71.8884 76.8245 72.0019 77.2331 72.243C77.6416 72.4841 78.0079 72.8812 78.3179 73.4201V66.3433H79.0223V79.2915H79.0082ZM78.3038 75.6467C78.3038 74.6965 78.0502 73.9307 77.543 73.3776C77.0358 72.8245 76.3596 72.5408 75.5284 72.5408C74.7253 72.5408 74.0913 72.8386 73.5842 73.4201C73.0911 74.0016 72.8375 74.7816 72.8375 75.7318C72.8375 76.6678 73.0911 77.4053 73.5983 77.9584C74.1054 78.5115 74.7817 78.7809 75.6129 78.7809C76.43 78.7809 77.0781 78.4973 77.5712 77.93C78.0643 77.3627 78.3038 76.6111 78.3038 75.6467Z" fill="#311A0E"/>
<path d="M87.5038 75.6186H81.5022C81.5163 76.6397 81.7558 77.4197 82.2207 77.9586C82.6856 78.5117 83.3337 78.7812 84.1508 78.7812C84.7425 78.7812 85.2497 78.6535 85.6723 78.3841C86.095 78.1288 86.4472 77.7317 86.7149 77.1928L87.3207 77.5048C86.9685 78.1572 86.5317 78.6535 86.0245 78.9655C85.5174 79.2775 84.8975 79.4335 84.1649 79.4335C83.1223 79.4335 82.3052 79.0932 81.6994 78.4124C81.1077 77.7317 80.8118 76.7957 80.8118 75.6186C80.8118 74.5266 81.1359 73.6331 81.7699 72.924C82.4038 72.2291 83.2069 71.8745 84.1649 71.8745C85.1792 71.8745 85.9823 72.1865 86.6022 72.8389C87.2221 73.4771 87.5179 74.3422 87.5179 75.42V75.6186H87.5038ZM86.7571 74.952C86.7149 74.2287 86.4472 73.6473 85.9823 73.2076C85.5033 72.768 84.8975 72.5411 84.1649 72.5411C83.4746 72.5411 82.8828 72.768 82.3897 73.2076C81.8967 73.6615 81.6149 74.2429 81.5585 74.952H86.7571Z" fill="#311A0E"/>
<path d="M94.8577 79.2915H94.1533V66.3433H94.8577V79.2915Z" fill="#311A0E"/>
<path d="M103.522 79.2912H102.817V77.9156C102.493 78.4403 102.099 78.8232 101.662 79.0785C101.211 79.3196 100.676 79.4472 100.056 79.4472C99.0559 79.4472 98.2387 79.1068 97.6048 78.4261C96.9708 77.7454 96.6608 76.8519 96.6608 75.7457C96.6608 74.597 96.9708 73.6609 97.5907 72.9518C98.2106 72.2427 99.0136 71.8882 99.9857 71.8882C100.704 71.8882 101.268 72.0016 101.704 72.2427C102.141 72.4838 102.508 72.8809 102.817 73.434V72.0442H103.522V79.2912ZM102.817 75.6464C102.817 74.6962 102.564 73.9304 102.057 73.3773C101.55 72.8242 100.887 72.5406 100.042 72.5406C99.239 72.5406 98.5909 72.8384 98.0978 73.4198C97.6048 74.0013 97.3512 74.7813 97.3512 75.7315C97.3512 76.6675 97.6048 77.405 98.1119 77.9581C98.6191 78.5112 99.2954 78.7807 100.127 78.7807C100.944 78.7807 101.592 78.497 102.085 77.9297C102.578 77.3625 102.817 76.6108 102.817 75.6464Z" fill="#311A0E"/>
<path d="M117.568 75.7459C117.568 76.8521 117.258 77.7456 116.624 78.4264C116.004 79.1071 115.187 79.4475 114.173 79.4475C113.553 79.4475 113.018 79.3198 112.567 79.0787C112.116 78.8376 111.736 78.4405 111.412 77.9158V79.2915H110.707V66.3433H111.412V73.4201C111.693 72.9095 112.074 72.5266 112.539 72.2714C113.018 72.0161 113.581 71.8743 114.229 71.8743C115.216 71.8743 116.019 72.2288 116.638 72.9379C117.244 73.6612 117.568 74.5972 117.568 75.7459ZM116.864 75.7318C116.864 74.7816 116.61 74.0016 116.117 73.4201C115.624 72.8386 114.976 72.5408 114.173 72.5408C113.314 72.5408 112.637 72.8103 112.144 73.3634C111.651 73.9165 111.412 74.6823 111.412 75.6467C111.412 76.5969 111.651 77.3627 112.158 77.93C112.651 78.4973 113.314 78.7809 114.131 78.7809C114.962 78.7809 115.638 78.5115 116.131 77.9584C116.61 77.4194 116.864 76.6678 116.864 75.7318Z" fill="#311A0E"/>
<path d="M125.599 75.6186H119.583C119.597 76.6397 119.836 77.4197 120.301 77.9586C120.766 78.5117 121.414 78.7812 122.231 78.7812C122.823 78.7812 123.33 78.6535 123.739 78.3841C124.162 78.1288 124.514 77.7317 124.781 77.1928L125.387 77.5048C125.035 78.1572 124.598 78.6535 124.077 78.9655C123.57 79.2775 122.936 79.4335 122.217 79.4335C121.175 79.4335 120.344 79.0932 119.752 78.4124C119.16 77.7317 118.864 76.7957 118.864 75.6186C118.864 74.5266 119.188 73.6331 119.822 72.924C120.456 72.2291 121.259 71.8745 122.217 71.8745C123.232 71.8745 124.035 72.1865 124.655 72.8389C125.275 73.4771 125.57 74.3422 125.57 75.42V75.6186H125.599ZM124.838 74.952C124.796 74.2287 124.528 73.6473 124.063 73.2076C123.584 72.768 122.978 72.5411 122.246 72.5411C121.555 72.5411 120.964 72.768 120.47 73.2076C119.977 73.6615 119.696 74.2429 119.639 74.952H124.838Z" fill="#311A0E"/>
<path d="M133.77 79.2912H133.065V77.9156C132.741 78.4403 132.347 78.8232 131.91 79.0785C131.459 79.3196 130.924 79.4472 130.304 79.4472C129.304 79.4472 128.487 79.1068 127.853 78.4261C127.219 77.7454 126.909 76.8519 126.909 75.7457C126.909 74.597 127.219 73.6609 127.839 72.9518C128.458 72.2427 129.261 71.8882 130.234 71.8882C130.938 71.8882 131.516 72.0016 131.952 72.2427C132.389 72.4838 132.755 72.8809 133.065 73.434V72.0442H133.77V79.2912ZM133.079 75.6464C133.079 74.6962 132.826 73.9304 132.319 73.3773C131.811 72.8242 131.135 72.5406 130.304 72.5406C129.501 72.5406 128.853 72.8384 128.36 73.4198C127.867 74.0013 127.613 74.7813 127.613 75.7315C127.613 76.6675 127.867 77.405 128.374 77.9581C128.881 78.5112 129.557 78.7807 130.403 78.7807C131.22 78.7807 131.868 78.497 132.361 77.9297C132.826 77.3625 133.079 76.6108 133.079 75.6464Z" fill="#311A0E"/>
<path d="M140.997 76.299C140.997 77.4052 140.799 78.2136 140.405 78.71C140.01 79.2064 139.362 79.4475 138.489 79.4475C137.615 79.4475 136.981 79.1922 136.587 78.6958C136.178 78.1853 135.981 77.3911 135.981 76.299V72.0444H136.686V76.0863C136.686 77.0507 136.812 77.7456 137.08 78.1569C137.348 78.5682 137.813 78.7809 138.489 78.7809C139.179 78.7809 139.644 78.5824 139.912 78.1711C140.18 77.7598 140.306 77.0649 140.306 76.0863V72.0444H141.011V76.299H140.997Z" fill="#311A0E"/>
<path d="M145.351 72.6977H144.026V79.2924H143.322V72.6977H142.322V72.0453H143.322V68.9253H144.026V72.0453H145.351V72.6977Z" fill="#311A0E"/>
<path d="M152.691 75.6184H146.689C146.703 76.6395 146.943 77.4195 147.408 77.9584C147.873 78.5115 148.507 78.781 149.338 78.781C149.93 78.781 150.437 78.6533 150.859 78.3839C151.282 78.1286 151.634 77.7315 151.902 77.1926L152.508 77.5046C152.156 78.157 151.719 78.6533 151.212 78.9653C150.704 79.2773 150.085 79.4333 149.352 79.4333C148.309 79.4333 147.492 79.093 146.886 78.4122C146.295 77.7315 145.999 76.7955 145.999 75.6184C145.999 74.5264 146.323 73.6329 146.957 72.9238C147.591 72.2289 148.394 71.8743 149.352 71.8743C150.366 71.8743 151.169 72.1863 151.789 72.8387C152.409 73.4769 152.705 74.342 152.705 75.4198V75.6184H152.691ZM151.93 74.9518C151.888 74.2285 151.62 73.6471 151.155 73.2074C150.676 72.7678 150.07 72.5409 149.338 72.5409C148.648 72.5409 148.056 72.7678 147.563 73.2074C147.07 73.6613 146.802 74.2427 146.731 74.9518H151.93ZM150.789 68.8961L148.986 71.2645L148.577 70.9525L150.268 68.5132L150.789 68.8961Z" fill="#311A0E"/>
</svg>
