<svg width="51" height="55" viewBox="0 0 51 55" fill="none" xmlns="http://www.w3.org/2000/svg">
<path d="M25.1743 25.0046C23.7637 36.3213 16.5593 38.3344 16.5593 46.2024C16.5593 51.0591 20.6528 55 25.5 55C30.3472 55 34.438 51.0564 34.438 46.2024C34.438 38.3344 27.2335 36.3213 25.823 25.0046C25.7788 24.6664 25.2184 24.6664 25.1743 25.0046ZM8.61501 0.253697C7.20448 11.5704 0 13.5807 0 21.4515C0 26.3054 4.09082 30.2491 8.93797 30.2491C13.7851 30.2491 17.8759 26.3054 17.8759 21.4515C17.8759 13.5834 10.6715 11.5704 9.26093 0.253697C9.21953 -0.0845657 8.65642 -0.0845657 8.61501 0.253697ZM41.7391 0.253697C40.3285 11.5704 33.1241 13.5834 33.1241 21.4515C33.1241 26.3054 37.2149 30.2491 42.062 30.2491C46.9092 30.2491 51 26.3054 51 21.4515C51 13.5834 43.7955 11.5704 42.385 0.253697C42.3408 -0.0845657 41.7805 -0.0845657 41.7391 0.253697Z" fill="#311A0E"/>
</svg>
