<svg width="51" height="51" viewBox="0 0 51 51" fill="none" xmlns="http://www.w3.org/2000/svg">
<path d="M9.5625 7.96875C9.5625 5.85531 10.4021 3.82842 11.8965 2.33399C13.3909 0.839562 15.4178 0 17.5312 0C19.6447 0 21.6716 0.839562 23.166 2.33399C24.6604 3.82842 25.5 5.85531 25.5 7.96875C25.5 5.85531 26.3396 3.82842 27.834 2.33399C29.3284 0.839562 31.3553 0 33.4688 0C35.5822 0 37.6091 0.839562 39.1035 2.33399C40.5979 3.82842 41.4375 5.85531 41.4375 7.96875V7.98787C41.4375 8.211 41.4375 8.8485 41.3164 9.5625H47.8125C48.6579 9.5625 49.4686 9.89832 50.0664 10.4961C50.6642 11.0939 51 11.9046 51 12.75V19.125C51 19.9704 50.6642 20.7811 50.0664 21.3789C49.4686 21.9767 48.6579 22.3125 47.8125 22.3125V46.2188C47.8125 47.4868 47.3088 48.7029 46.4121 49.5996C45.5154 50.4963 44.2993 51 43.0312 51H7.96875C6.70068 51 5.48455 50.4963 4.5879 49.5996C3.69124 48.7029 3.1875 47.4868 3.1875 46.2188V22.3125C2.34212 22.3125 1.53137 21.9767 0.933597 21.3789C0.335825 20.7811 0 19.9704 0 19.125V12.75C0 11.9046 0.335825 11.0939 0.933597 10.4961C1.53137 9.89832 2.34212 9.5625 3.1875 9.5625H9.68363C9.59943 9.04192 9.55892 8.51521 9.5625 7.98787V7.96875ZM12.9667 9.5625H22.3125V7.96875C22.3125 7.34087 22.1888 6.71913 21.9485 6.13904C21.7083 5.55896 21.3561 5.03188 20.9121 4.5879C20.4681 4.14392 19.941 3.79173 19.361 3.55145C18.7809 3.31117 18.1591 3.1875 17.5312 3.1875C16.9034 3.1875 16.2816 3.31117 15.7015 3.55145C15.1215 3.79173 14.5944 4.14392 14.1504 4.5879C13.7064 5.03188 13.3542 5.55896 13.114 6.13904C12.8737 6.71913 12.75 7.34087 12.75 7.96875C12.75 8.23969 12.7564 8.84212 12.8934 9.33938C12.9126 9.41538 12.9371 9.48994 12.9667 9.5625ZM28.6875 9.5625H38.0332C38.0626 9.48981 38.0871 9.41528 38.1066 9.33938C38.2436 8.84212 38.25 8.23969 38.25 7.96875C38.25 6.70068 37.7463 5.48455 36.8496 4.5879C35.9529 3.69124 34.7368 3.1875 33.4688 3.1875C32.2007 3.1875 30.9846 3.69124 30.0879 4.5879C29.1912 5.48455 28.6875 6.70068 28.6875 7.96875V9.5625ZM3.1875 12.75V19.125H22.3125V12.75H3.1875ZM28.6875 12.75V19.125H47.8125V12.75H28.6875ZM44.625 22.3125H28.6875V47.8125H43.0312C43.4539 47.8125 43.8593 47.6446 44.1582 47.3457C44.4571 47.0468 44.625 46.6414 44.625 46.2188V22.3125ZM22.3125 47.8125V22.3125H6.375V46.2188C6.375 46.6414 6.54291 47.0468 6.8418 47.3457C7.14069 47.6446 7.54606 47.8125 7.96875 47.8125H22.3125Z" fill="#311A0E"/>
</svg>
