<svg width="61" height="56" viewBox="0 0 61 56" fill="none" xmlns="http://www.w3.org/2000/svg">
<path d="M60.997 18.2304C60.996 18.1991 60.9909 18.169 60.9878 18.1379C60.9824 18.0791 60.9728 18.0207 60.9588 17.9632C60.9558 17.951 60.9564 17.9389 60.9527 17.9267L56.5787 2.64874C56.3579 1.88696 55.8957 1.2171 55.2612 0.739561C54.6268 0.262025 53.8543 0.00254071 53.0596 0H7.94037C7.14563 0.0025106 6.37311 0.262021 5.73864 0.739622C5.10418 1.21722 4.64196 1.88718 4.42128 2.64904L0.0469698 17.9261C0.0436148 17.9383 0.0439202 17.951 0.0408702 17.9632C0.0271781 18.0206 0.0176978 18.0789 0.0125051 18.1376C0.00945511 18.1687 0.0039649 18.1988 0.0033549 18.2298C0.0027449 18.2402 0 18.2499 0 18.2606V23.1301C0.000600964 24.9312 0.446231 26.7043 1.29743 28.2925C2.14863 29.8807 3.37914 31.2349 4.88 32.2353V52.3478C4.88105 53.3161 5.26699 54.2445 5.95315 54.9291C6.6393 55.6138 7.56963 55.999 8.54 56H52.46C53.4304 55.999 54.3607 55.6138 55.0469 54.9291C55.733 54.2445 56.1189 53.3161 56.12 52.3478V32.2356C57.6209 31.2352 58.8514 29.881 59.7026 28.2928C60.5538 26.7046 60.9994 24.9315 61 23.1304V18.2609C61 18.2502 60.997 18.2405 60.997 18.2304ZM6.76704 3.31739C6.84076 3.06345 6.99497 2.84018 7.20656 2.68106C7.41815 2.52194 7.67572 2.43553 7.94068 2.43478H53.0599C53.3248 2.43566 53.5822 2.52213 53.7937 2.68124C54.0052 2.84035 54.1593 3.06355 54.233 3.31739L58.1626 17.0435H2.83742L6.76704 3.31739ZM21.96 19.4783H39.04V23.1304C39.04 25.3905 38.1403 27.5581 36.5387 29.1562C34.9371 30.7544 32.7649 31.6522 30.5 31.6522C28.2351 31.6522 26.0629 30.7544 24.4613 29.1562C22.8597 27.5581 21.96 25.3905 21.96 23.1304V19.4783ZM2.44 23.1304V19.4783H19.52V23.1304C19.5205 24.6079 19.1358 26.06 18.4039 27.3443C17.672 28.6286 16.6179 29.7009 15.3452 30.4559C14.0725 31.2108 12.6249 31.6225 11.1445 31.6505C9.6642 31.6785 8.20201 31.3218 6.90154 30.6156C6.7845 30.5129 6.64874 30.4338 6.50169 30.3824C5.26092 29.6198 4.23634 28.5531 3.5254 27.2837C2.81446 26.0143 2.44081 24.5846 2.44 23.1304ZM53.68 52.3478C53.6797 52.6706 53.551 52.9801 53.3223 53.2083C53.0936 53.4365 52.7835 53.5649 52.46 53.5652H8.54C8.21654 53.5649 7.90641 53.4365 7.67769 53.2083C7.44896 52.9801 7.32032 52.6706 7.32 52.3478V33.4588C9.82307 34.3436 12.5629 34.2923 15.0308 33.3142C17.4988 32.3361 19.5274 30.4977 20.74 28.1403C21.6616 29.9311 23.0603 31.4337 24.7822 32.4829C26.5041 33.5321 28.4825 34.0871 30.5 34.0871C32.5175 34.0871 34.4959 33.5321 36.2178 32.4829C37.9397 31.4337 39.3384 29.9311 40.26 28.1403C41.4726 30.4977 43.5012 32.3361 45.9692 33.3142C48.4371 34.2923 51.1769 34.3436 53.68 33.4588V52.3478ZM54.4971 30.383C54.3513 30.4343 54.2168 30.5129 54.1006 30.6147C52.8001 31.3215 51.3378 31.6786 49.8572 31.651C48.3766 31.6233 46.9286 31.2118 45.6556 30.4569C44.3826 29.702 43.3282 28.6296 42.5961 27.3451C41.8641 26.0606 41.4794 24.6081 41.48 23.1304V19.4783H58.56V23.1304C58.5592 24.5848 58.1854 26.0148 57.4742 27.2842C56.7631 28.5537 55.7382 29.6205 54.4971 30.383Z" fill="#311A0E"/>
</svg>
