<svg width="53" height="52" viewBox="0 0 53 52" fill="none" xmlns="http://www.w3.org/2000/svg">
<path d="M38.0982 49.5944C37.3189 50.3571 36.3938 50.9621 35.3756 51.3748C34.3573 51.7876 33.266 52 32.1639 52C31.0617 52 29.9704 51.7876 28.9522 51.3748C27.934 50.9621 27.0088 50.3571 26.2296 49.5944L2.94827 27.3606C1.25875 25.8606 0 23.6216 0 21.2129V8.21145C0 6.03364 0.88412 3.94502 2.45786 2.40508C4.03161 0.865133 6.16606 0 8.39167 0H21.6785C24.14 0 26.4282 1.23445 27.961 2.88496L50.543 25.8031C52.1162 27.343 53 29.4312 53 31.6086C53 33.786 52.1162 35.8742 50.543 37.4141L38.0954 49.5944H38.0982ZM36.1177 47.6593L48.5654 35.4789C49.6142 34.4524 50.2034 33.0602 50.2034 31.6086C50.2034 30.157 49.6142 28.7649 48.5654 27.7383L25.4883 4.33565C24.5484 3.27637 23.2225 2.73715 21.6785 2.73715L8.31615 2.66325C5.23081 2.66325 2.79722 5.1869 2.79722 8.21145V21.2129C2.79722 22.7238 3.34828 24.0212 4.4308 24.9409L28.2072 47.6593C29.2563 48.6855 30.679 49.2621 32.1625 49.2621C33.6459 49.2621 35.0686 48.6855 36.1177 47.6593ZM12.5875 5.4743C14.4422 5.4743 16.2209 6.19524 17.5323 7.47853C18.8438 8.76182 19.5806 10.5023 19.5806 12.3172C19.5806 14.132 18.8438 15.8725 17.5323 17.1558C16.2209 18.4391 14.4422 19.1601 12.5875 19.1601C10.7328 19.1601 8.95412 18.4391 7.64267 17.1558C6.33121 15.8725 5.59445 14.132 5.59445 12.3172C5.59445 10.5023 6.33121 8.76182 7.64267 7.47853C8.95412 6.19524 10.7328 5.4743 12.5875 5.4743ZM12.5875 8.21145C11.4747 8.21145 10.4075 8.64402 9.6206 9.41399C8.83373 10.184 8.39167 11.2283 8.39167 12.3172C8.39167 13.4061 8.83373 14.4504 9.6206 15.2204C10.4075 15.9903 11.4747 16.4229 12.5875 16.4229C13.7003 16.4229 14.7675 15.9903 15.5544 15.2204C16.3413 14.4504 16.7833 13.4061 16.7833 12.3172C16.7833 11.2283 16.3413 10.184 15.5544 9.41399C14.7675 8.64402 13.7003 8.21145 12.5875 8.21145Z" fill="#311A0E"/>
</svg>
